<?xml version="1.0" encoding="utf-8"?>
<!-- Generator: Adobe Illustrator 24.0.1, SVG Export Plug-In . SVG Version: 6.00 Build 0)  -->
<svg version="1.1" id="Capa_1" xmlns="http://www.w3.org/2000/svg" xmlns:xlink="http://www.w3.org/1999/xlink" x="0px" y="0px"
	 viewBox="0 0 500 500" style="enable-background:new 0 0 500 500;" xml:space="preserve">
<style type="text/css">
	.st0{fill:#FA0F0C;}
	.st1{fill:#0E3192;}
	.st2{fill:#01A0C6;}
	.st3{fill:url(#SVGID_1_);}
	.st4{fill:url(#SVGID_2_);}
	.st5{fill:url(#SVGID_3_);}
	.st6{fill:url(#SVGID_4_);}
	.st7{fill:url(#SVGID_5_);}
	.st8{fill:url(#SVGID_6_);}
</style>
<g>
	<path class="st0" d="M17.1,224c23.4,0,33.7-12.8,33.7-24.4c0-9.2-1.3-18.4-2.6-27.7c-1.3-9.2-2.6-18.1-2.6-27.3
		c0-30.3,19.8-43.2,47.8-43.2h6.9v18.1h-5.9c-19.4,0-26,10.5-26,28.3c0,7.6,1,15.5,2.3,23.4c1.3,8.2,2.3,16.1,2.3,25
		c0.3,21.1-8.9,31.6-23.7,35.6v0.7c14.8,3.6,24,14.8,23.7,35.9c0,8.9-1,17.1-2.3,25c-1.3,8.2-2.3,15.8-2.3,23.7
		c0,18.4,7.6,28.7,26,28.7h5.9V364h-6.9c-27.3,0-47.8-11.9-47.8-45.1c0-8.9,1.3-18.1,2.6-27c1.3-8.9,2.6-17.8,2.6-26.7
		c0-10.2-10.3-24.4-33.7-24.4V224z"/>
</g>
<g>
	<path class="st0" d="M461.7,240.8c-23.4,0-26.7,14.2-26.7,24.4c0,8.9,1.3,17.8,2.6,26.7c1.3,8.9,2.6,18.1,2.6,27
		c0,33.3-20.4,45.1-47.8,45.1h-6.9v-18.1h5.9c18.4,0,26-10.2,26-28.7c0-7.9-1-15.5-2.3-23.7c-1.3-7.9-2.3-16.1-2.3-25
		c-0.3-21.1,8.9-32.3,23.7-35.9v-0.7c-14.8-4-24-14.5-23.7-35.6c0-8.9,1-16.8,2.3-25c1.3-7.9,2.3-15.8,2.3-23.4
		c0-17.8-6.6-28.3-26-28.3h-5.9v-18.1h6.9c28,0,47.8,12.8,47.8,43.2c0,9.2-1.3,18.1-2.6,27.3c-1.3,9.2-2.6,18.4-2.6,27.7
		c0,11.5,3.3,24.4,26.7,24.4V240.8z"/>
</g>
<path class="st1" d="M104.2,140.4h23.7v-16h16.6v16h23.6v10.9h-63.9V140.4z"/>
<path class="st1" d="M175.9,151.2v-26.9h16.6v26.9H175.9z M223.8,151.2v-26.9h16.5v26.9H223.8z"/>
<path class="st1" d="M312.2,151.2h-21.5l-26.2-16.5v16.5H248v-26.9h39.4l-7.5,5.1L312.2,151.2z"/>
<path class="st1" d="M318.1,151.2v-26.9h16.6v26.9H318.1z M365.9,124.3h16.5v26.9h-16.5v-13.1h-22V128h22V124.3z"/>
<g>
	<g>
		<path class="st2" d="M363,242.3c0-6.2-4.3-11.4-10.1-12.9v-12.9c0-3.3-1.9-6.2-4.6-7.8v-24.7c0-11-10-20-22.3-20H152.8
			c-12.3,0-22.3,9-22.3,20v24.7c-2.7,1.5-4.6,4.4-4.6,7.8v12.6c-7,0.4-12.5,6.1-12.5,13.2c0,7.1,5.6,12.8,12.5,13.2v11.5
			c0,4.9,4,8.9,8.9,8.9h1.3c4.9,0,8.9-4,8.9-8.9v-17.7h5.8v22.7c0,4.4,3.6,7.9,8,7.9h6.6c0.3,9.8,8.4,17.7,18.3,17.7h108.5
			c9.9,0,18-7.9,18.3-17.7h8.2c4.4,0,8-3.6,8-7.9v-22.7h7.1v17.7c0,4.9,4,8.9,8.9,8.9h1.3c4.9,0,8.9-4,8.9-8.9v-11.9
			C358.7,253.8,363,248.5,363,242.3z M202.5,280v8.1H188V280v-16.1h14.5V280z M225.1,280v8.1H209V280v-16.1h16.1V280z M211.1,256.2
			c-13.2,0-23.9-13.4-23.9-29.9c0-7.9,2.5-15.1,6.5-20.4c4.4-5.8,10.5-9.5,17.4-9.5c6.9,0,13.1,3.7,17.4,9.5
			c4,5.3,6.5,12.5,6.5,20.4C235,242.8,224.3,256.2,211.1,256.2z M246.1,280v8.1h-16.1V280v-16.1h16.1V280z M267,280v8.1h-14.5V280
			v-16.1H267V280z M288,280v8.1h-14.5V280v-16.1H288V280z M265.4,256.2c-13.2,0-23.9-13.4-23.9-29.9c0-7.9,2.5-15.1,6.5-20.4
			c4.4-5.8,10.5-9.5,17.4-9.5c6.9,0,13.1,3.7,17.4,9.5c4,5.3,6.5,12.5,6.5,20.4C289.3,242.8,278.6,256.2,265.4,256.2z M326.7,236.5
			v-22.7c0-4.4-3.6-8-8-8h-8.2v-1c0-10.1-8.2-18.4-18.4-18.4H183.8c-10.1,0-18.4,8.2-18.4,18.4v1h-6.6c-2.1,0-4.1,0.8-5.6,2.3
			c-1.5,1.5-2.3,3.5-2.3,5.6v22.7h-5.8v-19.9c0-3.3-1.9-6.2-4.6-7.8v-24.7c0-5.5,5.5-10,12.3-10h173.3c6.8,0,12.3,4.5,12.3,10v24.7
			c-2.7,1.5-4.6,4.4-4.6,7.8v19.9H326.7z"/>
	</g>
	<g>
		
			<linearGradient id="SVGID_1_" gradientUnits="userSpaceOnUse" x1="231.2257" y1="297.7518" x2="231.2257" y2="164.1844" gradientTransform="matrix(1 0 0 1 7 0)">
			<stop  offset="0.5157" style="stop-color:#01A0C6"/>
			<stop  offset="0.5389" style="stop-color:#0E3192"/>
		</linearGradient>
		<path class="st3" d="M363,242.3c0-6.2-4.3-11.4-10.1-12.9v-12.9c0-3.3-1.9-6.2-4.6-7.8v-24.7c0-11-10-20-22.3-20H152.8
			c-12.3,0-22.3,9-22.3,20v24.7c-2.7,1.5-4.6,4.4-4.6,7.8v12.6c-7,0.4-12.5,6.1-12.5,13.2c0,7.1,5.6,12.8,12.5,13.2v11.5
			c0,4.9,4,8.9,8.9,8.9h1.3c4.9,0,8.9-4,8.9-8.9v-17.7h5.8v22.7c0,4.4,3.6,7.9,8,7.9h6.6c0.3,9.8,8.4,17.7,18.3,17.7h108.5
			c9.9,0,18-7.9,18.3-17.7h8.2c4.4,0,8-3.6,8-7.9v-22.7h7.1v17.7c0,4.9,4,8.9,8.9,8.9h1.3c4.9,0,8.9-4,8.9-8.9v-11.9
			C358.7,253.8,363,248.5,363,242.3z M202.5,280v8.1H188V280v-16.1h14.5V280z M225.1,280v8.1H209V280v-16.1h16.1V280z M211.1,256.2
			c-13.2,0-23.9-13.4-23.9-29.9c0-7.9,2.5-15.1,6.5-20.4c4.4-5.8,10.5-9.5,17.4-9.5c6.9,0,13.1,3.7,17.4,9.5
			c4,5.3,6.5,12.5,6.5,20.4C235,242.8,224.3,256.2,211.1,256.2z M246.1,280v8.1h-16.1V280v-16.1h16.1V280z M267,280v8.1h-14.5V280
			v-16.1H267V280z M288,280v8.1h-14.5V280v-16.1H288V280z M265.4,256.2c-13.2,0-23.9-13.4-23.9-29.9c0-7.9,2.5-15.1,6.5-20.4
			c4.4-5.8,10.5-9.5,17.4-9.5c6.9,0,13.1,3.7,17.4,9.5c4,5.3,6.5,12.5,6.5,20.4C289.3,242.8,278.6,256.2,265.4,256.2z M326.7,236.5
			v-22.7c0-4.4-3.6-8-8-8h-8.2v-1c0-10.1-8.2-18.4-18.4-18.4H183.8c-10.1,0-18.4,8.2-18.4,18.4v1h-6.6c-2.1,0-4.1,0.8-5.6,2.3
			c-1.5,1.5-2.3,3.5-2.3,5.6v22.7h-5.8v-19.9c0-3.3-1.9-6.2-4.6-7.8v-24.7c0-5.5,5.5-10,12.3-10h173.3c6.8,0,12.3,4.5,12.3,10v24.7
			c-2.7,1.5-4.6,4.4-4.6,7.8v19.9H326.7z"/>
	</g>
</g>
<rect x="104.3" y="101.5" class="st0" width="63.9" height="17.2"/>
<path class="st0" d="M175.9,101.5h52.9c1.5,0,2.9,0.4,4.3,1.3c1.4,0.9,2.6,2.1,3.6,3.7c1.1,1.6,1.9,3.4,2.5,5.5
	c0.6,2.1,0.9,4.3,0.9,6.7h-64.3V101.5z"/>
<rect x="248" y="101.5" class="st0" width="16.6" height="17.2"/>
<polygon class="st0" points="290.7,101.5 312.2,101.5 296.1,118.8 274,118.8 "/>
<path class="st0" d="M318.1,118.8c0-2.4,0.4-4.7,1-6.7c0.6-2.1,1.5-3.9,2.5-5.5c1-1.6,2.2-2.8,3.6-3.7c1.4-0.9,2.8-1.3,4.3-1.3H371
	c1.5,0,2.9,0.4,4.3,1.3c1.4,0.9,2.6,2.1,3.6,3.7c1.1,1.6,1.9,3.4,2.5,5.5c0.6,2.1,0.9,4.3,0.9,6.7H318.1z"/>
<g>
	<path d="M531,125.5h22V99.4h15.4v26.1h22v17.7H531V125.5z M531.1,72.2h59.4v17.7h-59.4V72.2z"/>
	<path d="M597.7,72.2H647c1.4,0,2.7,0.5,4,1.4c1.3,0.9,2.4,2.2,3.4,3.8c1,1.6,1.8,3.5,2.4,5.6c0.6,2.1,0.9,4.4,0.9,6.9h-59.8V72.2z
		 M597.7,143.2V99.4h15.4v43.7H597.7z M642.2,143.2V99.4h15.3v43.7H642.2z"/>
	<path d="M680.2,89.8h-15.4V72.2h15.4V89.8z M724.5,143.2h-20l-24.4-26.8v26.8h-15.4V99.4h36.7l-7,8.3L724.5,143.2z M704.5,72.2h20
		l-15,17.7h-20.6L704.5,72.2z"/>
	<path d="M730,89.8c0-2.5,0.4-4.8,1-6.9c0.6-2.1,1.4-4,2.3-5.6c1-1.6,2.1-2.9,3.4-3.8c1.3-0.9,2.6-1.4,4-1.4h38.6
		c1.4,0,2.7,0.5,4,1.4c1.3,0.9,2.4,2.2,3.4,3.8c1,1.6,1.8,3.5,2.4,5.6c0.6,2.1,0.9,4.4,0.9,6.9H730z M730,143.2V99.4h15.4v43.7H730z
		 M774.5,99.4h15.3v43.7h-15.3v-21.2H754v-16.5h20.5V99.4z"/>
</g>
<linearGradient id="SVGID_2_" gradientUnits="userSpaceOnUse" x1="136.0499" y1="364.2474" x2="136.0499" y2="332.3953">
	<stop  offset="0.505" style="stop-color:#FA0F0C"/>
	<stop  offset="0.5214" style="stop-color:#01A0C6"/>
</linearGradient>
<path class="st4" d="M162.7,332.4c-0.1,1.8-0.7,3.5-1.9,5.1c-1.2,1.6-2.7,3-4.6,4.3c-1.9,1.2-3.9,2.2-6.2,2.9
	c-2.3,0.7-4.5,1.1-6.6,1.1l18.2,18.4h-52.2v-31.9H162.7z"/>
<linearGradient id="SVGID_3_" gradientUnits="userSpaceOnUse" x1="195.3777" y1="364.2474" x2="195.3777" y2="332.3953">
	<stop  offset="0.505" style="stop-color:#FA0F0C"/>
	<stop  offset="0.5214" style="stop-color:#01A0C6"/>
</linearGradient>
<path class="st5" d="M208.1,332.4h13.6v18.3c0,1.9-0.3,3.7-0.8,5.4c-0.5,1.7-1.2,3.1-2.1,4.3c-0.9,1.2-1.9,2.2-3,2.9
	c-1.2,0.7-2.4,1.1-3.7,1.1h-33.7c-1.3,0-2.6-0.4-3.7-1.1c-1.1-0.7-2.1-1.7-3-2.9c-0.9-1.2-1.5-2.6-2-4.3c-0.5-1.6-0.7-3.4-0.7-5.4
	v-18.3h13.6v19h25.5V332.4z"/>
<linearGradient id="SVGID_4_" gradientUnits="userSpaceOnUse" x1="254.4464" y1="364.2474" x2="254.4464" y2="332.3953">
	<stop  offset="0.505" style="stop-color:#FA0F0C"/>
	<stop  offset="0.5214" style="stop-color:#01A0C6"/>
</linearGradient>
<path class="st6" d="M280.7,332.4c-0.2,1.1-0.5,2.2-0.9,3.2c-0.4,1.1-0.9,2-1.6,2.8c0.9,1,1.6,2.2,2,3.6c0.4,1.4,0.6,2.8,0.6,4v4.8
	c0,2-0.3,3.8-0.9,5.4c-0.6,1.7-1.4,3.1-2.4,4.3c-1,1.2-2.1,2.1-3.4,2.8c-1.3,0.7-2.6,1-3.9,1h-42.1v-31.8L280.7,332.4z M241.7,351.4
	h25.6v-6.9h-25.6V351.4z"/>
<linearGradient id="SVGID_5_" gradientUnits="userSpaceOnUse" x1="313.5147" y1="364.2474" x2="313.5147" y2="332.3953">
	<stop  offset="0.505" style="stop-color:#FA0F0C"/>
	<stop  offset="0.5214" style="stop-color:#01A0C6"/>
</linearGradient>
<path class="st7" d="M326.2,332.4h13.6v18.3c0,1.9-0.3,3.7-0.8,5.4c-0.5,1.7-1.2,3.1-2.1,4.3c-0.9,1.2-1.9,2.2-3,2.9
	c-1.2,0.7-2.4,1.1-3.7,1.1h-33.7c-1.3,0-2.6-0.4-3.7-1.1c-1.1-0.7-2.1-1.7-3-2.9c-0.9-1.2-1.5-2.6-2-4.3c-0.5-1.6-0.7-3.4-0.7-5.4
	v-18.3h13.6v19h25.5V332.4z"/>
<linearGradient id="SVGID_6_" gradientUnits="userSpaceOnUse" x1="372.4274" y1="364.2474" x2="372.4274" y2="332.3953">
	<stop  offset="0.505" style="stop-color:#FA0F0C"/>
	<stop  offset="0.5214" style="stop-color:#01A0C6"/>
</linearGradient>
<path class="st8" d="M365.6,364.2v-31.9h13.6v31.9H365.6z"/>
<path class="st2" d="M91.5,312.5h56.9c1.7,0,3.4,0.3,5.1,0.9c1.7,0.6,3.2,1.5,4.5,2.7c1.3,1.1,2.4,2.5,3.3,4.1
	c0.8,1.6,1.3,3.3,1.4,5.2H91.5V312.5z"/>
<path class="st2" d="M212.2,312.5c1.2,0,2.4,0.3,3.5,1c1.1,0.7,2.1,1.6,3,2.8c0.9,1.2,1.6,2.6,2.1,4.1c0.5,1.6,0.9,3.2,0.9,4.9H169
	c0-1.8,0.3-3.5,0.8-5c0.5-1.6,1.2-2.9,2.1-4.1c0.9-1.2,1.8-2.1,3-2.7s2.3-1,3.6-1H212.2z"/>
<path class="st2" d="M228.1,325.4v-12.9h42.1c1.3,0,2.5,0.3,3.8,0.9c1.2,0.6,2.3,1.5,3.3,2.7c1,1.1,1.8,2.5,2.4,4.1
	c0.6,1.6,1,3.3,1.1,5.2H228.1z"/>
<path class="st2" d="M330.3,312.5c1.2,0,2.4,0.3,3.5,1c1.1,0.7,2.1,1.6,3,2.8c0.9,1.2,1.6,2.6,2.1,4.1c0.5,1.6,0.8,3.2,0.9,4.9
	h-52.7c0-1.8,0.3-3.5,0.8-5c0.5-1.6,1.2-2.9,2.1-4.1c0.8-1.2,1.8-2.1,3-2.7s2.3-1,3.6-1H330.3z"/>
<rect x="346.2" y="312.5" class="st2" width="52.3" height="12.9"/>
<path class="st2" d="M207.1,227.1c-5,0-9.1,4.1-9.1,9c0,5,4.1,9,9.1,9c5,0,9.1-4.1,9.1-9C216.1,231.2,212.1,227.1,207.1,227.1z"/>
<path class="st2" d="M261.4,227.1c-5,0-9.1,4.1-9.1,9c0,5,4.1,9,9.1,9c5,0,9.1-4.1,9.1-9C270.4,231.2,266.4,227.1,261.4,227.1z"/>
<g>
</g>
<g>
</g>
<g>
</g>
<g>
</g>
<g>
</g>
<g>
</g>
</svg>
